<mxfile host="Electron" agent="Mozilla/5.0 (Windows NT 10.0; Win64; x64) AppleWebKit/537.36 (KHTML, like Gecko) draw.io/27.0.5 Chrome/134.0.6998.205 Electron/35.3.0 Safari/537.36" version="27.0.5">
  <diagram name="Page-1" id="oNHioNnpVMdkfkZnejCS">
    <mxGraphModel dx="4183" dy="1467" grid="1" gridSize="12" guides="1" tooltips="1" connect="1" arrows="1" fold="1" page="1" pageScale="1" pageWidth="850" pageHeight="1100" math="0" shadow="0">
      <root>
        <mxCell id="0" />
        <mxCell id="1" parent="0" />
        <mxCell id="UhS12bV-5eenLFscR9gc-3" style="edgeStyle=orthogonalEdgeStyle;rounded=0;orthogonalLoop=1;jettySize=auto;html=1;" edge="1" parent="1" source="UhS12bV-5eenLFscR9gc-1" target="UhS12bV-5eenLFscR9gc-2">
          <mxGeometry relative="1" as="geometry" />
        </mxCell>
        <mxCell id="UhS12bV-5eenLFscR9gc-5" style="edgeStyle=orthogonalEdgeStyle;rounded=0;orthogonalLoop=1;jettySize=auto;html=1;" edge="1" parent="1" source="UhS12bV-5eenLFscR9gc-1" target="UhS12bV-5eenLFscR9gc-4">
          <mxGeometry relative="1" as="geometry" />
        </mxCell>
        <mxCell id="UhS12bV-5eenLFscR9gc-1" value="&lt;font style=&quot;font-size: 24px;&quot;&gt;1,2&lt;/font&gt;" style="ellipse;whiteSpace=wrap;html=1;aspect=fixed;" vertex="1" parent="1">
          <mxGeometry x="210" y="70" width="80" height="80" as="geometry" />
        </mxCell>
        <mxCell id="UhS12bV-5eenLFscR9gc-74" style="edgeStyle=orthogonalEdgeStyle;rounded=0;orthogonalLoop=1;jettySize=auto;html=1;entryX=1;entryY=1;entryDx=0;entryDy=0;" edge="1" parent="1" source="UhS12bV-5eenLFscR9gc-2" target="UhS12bV-5eenLFscR9gc-68">
          <mxGeometry relative="1" as="geometry">
            <Array as="points">
              <mxPoint x="1380" y="200" />
              <mxPoint x="1380" y="1484" />
            </Array>
          </mxGeometry>
        </mxCell>
        <mxCell id="UhS12bV-5eenLFscR9gc-2" value="&lt;span style=&quot;font-size: 24px;&quot;&gt;3.&lt;/span&gt;" style="ellipse;whiteSpace=wrap;html=1;aspect=fixed;" vertex="1" parent="1">
          <mxGeometry x="330" y="160" width="80" height="80" as="geometry" />
        </mxCell>
        <mxCell id="UhS12bV-5eenLFscR9gc-9" style="edgeStyle=orthogonalEdgeStyle;rounded=0;orthogonalLoop=1;jettySize=auto;html=1;" edge="1" parent="1" source="UhS12bV-5eenLFscR9gc-4" target="UhS12bV-5eenLFscR9gc-8">
          <mxGeometry relative="1" as="geometry" />
        </mxCell>
        <mxCell id="UhS12bV-5eenLFscR9gc-4" value="&lt;font style=&quot;font-size: 24px;&quot;&gt;4&lt;/font&gt;" style="ellipse;whiteSpace=wrap;html=1;aspect=fixed;" vertex="1" parent="1">
          <mxGeometry x="100" y="160" width="80" height="80" as="geometry" />
        </mxCell>
        <mxCell id="UhS12bV-5eenLFscR9gc-11" style="edgeStyle=orthogonalEdgeStyle;rounded=0;orthogonalLoop=1;jettySize=auto;html=1;" edge="1" parent="1" source="UhS12bV-5eenLFscR9gc-8" target="UhS12bV-5eenLFscR9gc-10">
          <mxGeometry relative="1" as="geometry" />
        </mxCell>
        <mxCell id="UhS12bV-5eenLFscR9gc-8" value="&lt;font style=&quot;font-size: 24px;&quot;&gt;5.1&lt;/font&gt;" style="ellipse;whiteSpace=wrap;html=1;aspect=fixed;" vertex="1" parent="1">
          <mxGeometry x="100" y="350" width="80" height="80" as="geometry" />
        </mxCell>
        <mxCell id="UhS12bV-5eenLFscR9gc-15" style="edgeStyle=orthogonalEdgeStyle;rounded=0;orthogonalLoop=1;jettySize=auto;html=1;" edge="1" parent="1" source="UhS12bV-5eenLFscR9gc-10" target="UhS12bV-5eenLFscR9gc-12">
          <mxGeometry relative="1" as="geometry" />
        </mxCell>
        <mxCell id="UhS12bV-5eenLFscR9gc-17" style="edgeStyle=orthogonalEdgeStyle;rounded=0;orthogonalLoop=1;jettySize=auto;html=1;" edge="1" parent="1" source="UhS12bV-5eenLFscR9gc-10" target="UhS12bV-5eenLFscR9gc-16">
          <mxGeometry relative="1" as="geometry" />
        </mxCell>
        <mxCell id="UhS12bV-5eenLFscR9gc-10" value="&lt;font style=&quot;font-size: 24px;&quot;&gt;5.2&lt;/font&gt;" style="ellipse;whiteSpace=wrap;html=1;aspect=fixed;" vertex="1" parent="1">
          <mxGeometry x="310" y="350" width="80" height="80" as="geometry" />
        </mxCell>
        <mxCell id="UhS12bV-5eenLFscR9gc-20" style="edgeStyle=orthogonalEdgeStyle;rounded=0;orthogonalLoop=1;jettySize=auto;html=1;" edge="1" parent="1" source="UhS12bV-5eenLFscR9gc-12" target="UhS12bV-5eenLFscR9gc-18">
          <mxGeometry relative="1" as="geometry" />
        </mxCell>
        <mxCell id="UhS12bV-5eenLFscR9gc-12" value="&lt;font style=&quot;font-size: 24px;&quot;&gt;6&lt;/font&gt;" style="ellipse;whiteSpace=wrap;html=1;aspect=fixed;" vertex="1" parent="1">
          <mxGeometry x="310" y="520" width="80" height="80" as="geometry" />
        </mxCell>
        <mxCell id="UhS12bV-5eenLFscR9gc-42" style="edgeStyle=orthogonalEdgeStyle;rounded=0;orthogonalLoop=1;jettySize=auto;html=1;" edge="1" parent="1" source="UhS12bV-5eenLFscR9gc-16" target="UhS12bV-5eenLFscR9gc-43">
          <mxGeometry relative="1" as="geometry">
            <mxPoint x="582.9999999999995" y="550" as="targetPoint" />
          </mxGeometry>
        </mxCell>
        <mxCell id="UhS12bV-5eenLFscR9gc-45" style="edgeStyle=orthogonalEdgeStyle;rounded=0;orthogonalLoop=1;jettySize=auto;html=1;" edge="1" parent="1" source="UhS12bV-5eenLFscR9gc-16" target="UhS12bV-5eenLFscR9gc-44">
          <mxGeometry relative="1" as="geometry" />
        </mxCell>
        <mxCell id="UhS12bV-5eenLFscR9gc-16" value="&lt;font style=&quot;font-size: 24px;&quot;&gt;15&lt;/font&gt;" style="ellipse;whiteSpace=wrap;html=1;aspect=fixed;" vertex="1" parent="1">
          <mxGeometry x="540" y="350" width="80" height="80" as="geometry" />
        </mxCell>
        <mxCell id="UhS12bV-5eenLFscR9gc-22" style="edgeStyle=orthogonalEdgeStyle;rounded=0;orthogonalLoop=1;jettySize=auto;html=1;" edge="1" parent="1" source="UhS12bV-5eenLFscR9gc-18" target="UhS12bV-5eenLFscR9gc-21">
          <mxGeometry relative="1" as="geometry" />
        </mxCell>
        <mxCell id="UhS12bV-5eenLFscR9gc-24" style="edgeStyle=orthogonalEdgeStyle;rounded=0;orthogonalLoop=1;jettySize=auto;html=1;" edge="1" parent="1" source="UhS12bV-5eenLFscR9gc-18" target="UhS12bV-5eenLFscR9gc-23">
          <mxGeometry relative="1" as="geometry" />
        </mxCell>
        <mxCell id="UhS12bV-5eenLFscR9gc-18" value="&lt;font style=&quot;font-size: 24px;&quot;&gt;7&lt;/font&gt;" style="ellipse;whiteSpace=wrap;html=1;aspect=fixed;" vertex="1" parent="1">
          <mxGeometry x="100" y="520" width="80" height="80" as="geometry" />
        </mxCell>
        <mxCell id="UhS12bV-5eenLFscR9gc-70" style="edgeStyle=orthogonalEdgeStyle;rounded=0;orthogonalLoop=1;jettySize=auto;html=1;entryX=0;entryY=0.5;entryDx=0;entryDy=0;" edge="1" parent="1" source="UhS12bV-5eenLFscR9gc-21" target="UhS12bV-5eenLFscR9gc-68">
          <mxGeometry relative="1" as="geometry">
            <Array as="points">
              <mxPoint x="140" y="1456" />
            </Array>
          </mxGeometry>
        </mxCell>
        <mxCell id="UhS12bV-5eenLFscR9gc-21" value="&lt;font style=&quot;font-size: 24px;&quot;&gt;8.&lt;/font&gt;" style="ellipse;whiteSpace=wrap;html=1;aspect=fixed;" vertex="1" parent="1">
          <mxGeometry x="100" y="672" width="80" height="80" as="geometry" />
        </mxCell>
        <mxCell id="UhS12bV-5eenLFscR9gc-26" style="edgeStyle=orthogonalEdgeStyle;rounded=0;orthogonalLoop=1;jettySize=auto;html=1;" edge="1" parent="1" source="UhS12bV-5eenLFscR9gc-23" target="UhS12bV-5eenLFscR9gc-25">
          <mxGeometry relative="1" as="geometry" />
        </mxCell>
        <mxCell id="UhS12bV-5eenLFscR9gc-28" style="edgeStyle=orthogonalEdgeStyle;rounded=0;orthogonalLoop=1;jettySize=auto;html=1;" edge="1" parent="1" source="UhS12bV-5eenLFscR9gc-23" target="UhS12bV-5eenLFscR9gc-27">
          <mxGeometry relative="1" as="geometry" />
        </mxCell>
        <mxCell id="UhS12bV-5eenLFscR9gc-23" value="&lt;font style=&quot;font-size: 24px;&quot;&gt;9&lt;/font&gt;" style="ellipse;whiteSpace=wrap;html=1;aspect=fixed;" vertex="1" parent="1">
          <mxGeometry x="-108" y="520" width="80" height="80" as="geometry" />
        </mxCell>
        <mxCell id="UhS12bV-5eenLFscR9gc-34" style="edgeStyle=orthogonalEdgeStyle;rounded=0;orthogonalLoop=1;jettySize=auto;html=1;" edge="1" parent="1" source="UhS12bV-5eenLFscR9gc-25" target="UhS12bV-5eenLFscR9gc-27">
          <mxGeometry relative="1" as="geometry">
            <mxPoint x="-180" y="660" as="targetPoint" />
          </mxGeometry>
        </mxCell>
        <mxCell id="UhS12bV-5eenLFscR9gc-25" value="&lt;font style=&quot;font-size: 24px;&quot;&gt;10&lt;/font&gt;" style="ellipse;whiteSpace=wrap;html=1;aspect=fixed;" vertex="1" parent="1">
          <mxGeometry x="-108" y="672" width="80" height="80" as="geometry" />
        </mxCell>
        <mxCell id="UhS12bV-5eenLFscR9gc-30" style="edgeStyle=orthogonalEdgeStyle;rounded=0;orthogonalLoop=1;jettySize=auto;html=1;" edge="1" parent="1" source="UhS12bV-5eenLFscR9gc-27" target="UhS12bV-5eenLFscR9gc-29">
          <mxGeometry relative="1" as="geometry">
            <Array as="points">
              <mxPoint x="-356" y="600" />
            </Array>
          </mxGeometry>
        </mxCell>
        <mxCell id="UhS12bV-5eenLFscR9gc-32" style="edgeStyle=orthogonalEdgeStyle;rounded=0;orthogonalLoop=1;jettySize=auto;html=1;" edge="1" parent="1" source="UhS12bV-5eenLFscR9gc-27" target="UhS12bV-5eenLFscR9gc-31">
          <mxGeometry relative="1" as="geometry" />
        </mxCell>
        <mxCell id="UhS12bV-5eenLFscR9gc-27" value="&lt;font style=&quot;font-size: 24px;&quot;&gt;11&lt;/font&gt;" style="ellipse;whiteSpace=wrap;html=1;aspect=fixed;" vertex="1" parent="1">
          <mxGeometry x="-336" y="520" width="80" height="80" as="geometry" />
        </mxCell>
        <mxCell id="UhS12bV-5eenLFscR9gc-75" style="edgeStyle=orthogonalEdgeStyle;rounded=0;orthogonalLoop=1;jettySize=auto;html=1;" edge="1" parent="1" source="UhS12bV-5eenLFscR9gc-29" target="UhS12bV-5eenLFscR9gc-37">
          <mxGeometry relative="1" as="geometry">
            <Array as="points">
              <mxPoint x="-356" y="840" />
              <mxPoint x="-684" y="840" />
              <mxPoint x="-684" y="560" />
            </Array>
          </mxGeometry>
        </mxCell>
        <mxCell id="UhS12bV-5eenLFscR9gc-29" value="&lt;font style=&quot;font-size: 24px;&quot;&gt;12&lt;/font&gt;" style="ellipse;whiteSpace=wrap;html=1;aspect=fixed;" vertex="1" parent="1">
          <mxGeometry x="-396" y="672" width="80" height="80" as="geometry" />
        </mxCell>
        <mxCell id="UhS12bV-5eenLFscR9gc-36" style="edgeStyle=orthogonalEdgeStyle;rounded=0;orthogonalLoop=1;jettySize=auto;html=1;" edge="1" parent="1" source="UhS12bV-5eenLFscR9gc-31" target="UhS12bV-5eenLFscR9gc-35">
          <mxGeometry relative="1" as="geometry">
            <Array as="points">
              <mxPoint x="-504" y="712" />
            </Array>
          </mxGeometry>
        </mxCell>
        <mxCell id="UhS12bV-5eenLFscR9gc-38" style="edgeStyle=orthogonalEdgeStyle;rounded=0;orthogonalLoop=1;jettySize=auto;html=1;" edge="1" parent="1" source="UhS12bV-5eenLFscR9gc-31" target="UhS12bV-5eenLFscR9gc-37">
          <mxGeometry relative="1" as="geometry" />
        </mxCell>
        <mxCell id="UhS12bV-5eenLFscR9gc-31" value="&lt;font style=&quot;font-size: 24px;&quot;&gt;13&lt;/font&gt;" style="ellipse;whiteSpace=wrap;html=1;aspect=fixed;" vertex="1" parent="1">
          <mxGeometry x="-505" y="520" width="80" height="80" as="geometry" />
        </mxCell>
        <mxCell id="UhS12bV-5eenLFscR9gc-40" style="edgeStyle=orthogonalEdgeStyle;rounded=0;orthogonalLoop=1;jettySize=auto;html=1;" edge="1" parent="1" source="UhS12bV-5eenLFscR9gc-35" target="UhS12bV-5eenLFscR9gc-37">
          <mxGeometry relative="1" as="geometry" />
        </mxCell>
        <mxCell id="UhS12bV-5eenLFscR9gc-35" value="&lt;font style=&quot;font-size: 24px;&quot;&gt;14&lt;/font&gt;" style="ellipse;whiteSpace=wrap;html=1;aspect=fixed;" vertex="1" parent="1">
          <mxGeometry x="-600" y="672" width="80" height="80" as="geometry" />
        </mxCell>
        <mxCell id="UhS12bV-5eenLFscR9gc-39" style="edgeStyle=orthogonalEdgeStyle;rounded=0;orthogonalLoop=1;jettySize=auto;html=1;entryX=0;entryY=1;entryDx=0;entryDy=0;" edge="1" parent="1" source="UhS12bV-5eenLFscR9gc-37" target="UhS12bV-5eenLFscR9gc-10">
          <mxGeometry relative="1" as="geometry">
            <mxPoint x="312" y="456" as="targetPoint" />
            <Array as="points">
              <mxPoint x="-632" y="420" />
              <mxPoint x="-120" y="420" />
              <mxPoint x="-120" y="492" />
              <mxPoint x="312" y="492" />
              <mxPoint x="312" y="418" />
            </Array>
          </mxGeometry>
        </mxCell>
        <mxCell id="UhS12bV-5eenLFscR9gc-37" value="&lt;font style=&quot;font-size: 24px;&quot;&gt;5.3&lt;/font&gt;" style="ellipse;whiteSpace=wrap;html=1;aspect=fixed;" vertex="1" parent="1">
          <mxGeometry x="-672" y="520" width="80" height="80" as="geometry" />
        </mxCell>
        <mxCell id="UhS12bV-5eenLFscR9gc-47" style="edgeStyle=orthogonalEdgeStyle;rounded=0;orthogonalLoop=1;jettySize=auto;html=1;" edge="1" parent="1" source="UhS12bV-5eenLFscR9gc-43" target="UhS12bV-5eenLFscR9gc-46">
          <mxGeometry relative="1" as="geometry" />
        </mxCell>
        <mxCell id="UhS12bV-5eenLFscR9gc-43" value="&lt;font style=&quot;font-size: 24px;&quot;&gt;16,17&lt;/font&gt;" style="ellipse;whiteSpace=wrap;html=1;aspect=fixed;" vertex="1" parent="1">
          <mxGeometry x="540" y="540" width="80" height="80" as="geometry" />
        </mxCell>
        <mxCell id="UhS12bV-5eenLFscR9gc-66" style="edgeStyle=orthogonalEdgeStyle;rounded=0;orthogonalLoop=1;jettySize=auto;html=1;" edge="1" parent="1" source="UhS12bV-5eenLFscR9gc-44" target="UhS12bV-5eenLFscR9gc-65">
          <mxGeometry relative="1" as="geometry" />
        </mxCell>
        <mxCell id="UhS12bV-5eenLFscR9gc-67" style="edgeStyle=orthogonalEdgeStyle;rounded=0;orthogonalLoop=1;jettySize=auto;html=1;" edge="1" parent="1" source="UhS12bV-5eenLFscR9gc-44" target="UhS12bV-5eenLFscR9gc-52">
          <mxGeometry relative="1" as="geometry">
            <Array as="points">
              <mxPoint x="784" y="468" />
              <mxPoint x="876" y="468" />
              <mxPoint x="876" y="624" />
              <mxPoint x="988" y="624" />
            </Array>
          </mxGeometry>
        </mxCell>
        <mxCell id="UhS12bV-5eenLFscR9gc-44" value="&lt;font style=&quot;font-size: 24px;&quot;&gt;22&lt;/font&gt;" style="ellipse;whiteSpace=wrap;html=1;aspect=fixed;" vertex="1" parent="1">
          <mxGeometry x="744" y="350" width="80" height="80" as="geometry" />
        </mxCell>
        <mxCell id="UhS12bV-5eenLFscR9gc-49" style="edgeStyle=orthogonalEdgeStyle;rounded=0;orthogonalLoop=1;jettySize=auto;html=1;" edge="1" parent="1" source="UhS12bV-5eenLFscR9gc-46" target="UhS12bV-5eenLFscR9gc-48">
          <mxGeometry relative="1" as="geometry" />
        </mxCell>
        <mxCell id="UhS12bV-5eenLFscR9gc-46" value="&lt;font style=&quot;font-size: 24px;&quot;&gt;18.1&lt;/font&gt;" style="ellipse;whiteSpace=wrap;html=1;aspect=fixed;" vertex="1" parent="1">
          <mxGeometry x="540" y="708" width="80" height="80" as="geometry" />
        </mxCell>
        <mxCell id="UhS12bV-5eenLFscR9gc-51" style="edgeStyle=orthogonalEdgeStyle;rounded=0;orthogonalLoop=1;jettySize=auto;html=1;" edge="1" parent="1" source="UhS12bV-5eenLFscR9gc-48" target="UhS12bV-5eenLFscR9gc-50">
          <mxGeometry relative="1" as="geometry" />
        </mxCell>
        <mxCell id="UhS12bV-5eenLFscR9gc-53" style="edgeStyle=orthogonalEdgeStyle;rounded=0;orthogonalLoop=1;jettySize=auto;html=1;" edge="1" parent="1" source="UhS12bV-5eenLFscR9gc-48" target="UhS12bV-5eenLFscR9gc-52">
          <mxGeometry relative="1" as="geometry" />
        </mxCell>
        <mxCell id="UhS12bV-5eenLFscR9gc-48" value="&lt;font style=&quot;font-size: 24px;&quot;&gt;18.2&lt;/font&gt;" style="ellipse;whiteSpace=wrap;html=1;aspect=fixed;" vertex="1" parent="1">
          <mxGeometry x="744" y="708" width="80" height="80" as="geometry" />
        </mxCell>
        <mxCell id="UhS12bV-5eenLFscR9gc-55" style="edgeStyle=orthogonalEdgeStyle;rounded=0;orthogonalLoop=1;jettySize=auto;html=1;" edge="1" parent="1" source="UhS12bV-5eenLFscR9gc-60" target="UhS12bV-5eenLFscR9gc-54">
          <mxGeometry relative="1" as="geometry" />
        </mxCell>
        <mxCell id="UhS12bV-5eenLFscR9gc-61" style="edgeStyle=orthogonalEdgeStyle;rounded=0;orthogonalLoop=1;jettySize=auto;html=1;" edge="1" parent="1" source="UhS12bV-5eenLFscR9gc-50" target="UhS12bV-5eenLFscR9gc-60">
          <mxGeometry relative="1" as="geometry" />
        </mxCell>
        <mxCell id="UhS12bV-5eenLFscR9gc-50" value="&lt;span style=&quot;font-size: 24px;&quot;&gt;19&lt;/span&gt;" style="ellipse;whiteSpace=wrap;html=1;aspect=fixed;" vertex="1" parent="1">
          <mxGeometry x="744" y="864" width="80" height="80" as="geometry" />
        </mxCell>
        <mxCell id="UhS12bV-5eenLFscR9gc-71" style="edgeStyle=orthogonalEdgeStyle;rounded=0;orthogonalLoop=1;jettySize=auto;html=1;entryX=0;entryY=0;entryDx=0;entryDy=0;" edge="1" parent="1" source="UhS12bV-5eenLFscR9gc-52" target="UhS12bV-5eenLFscR9gc-68">
          <mxGeometry relative="1" as="geometry" />
        </mxCell>
        <mxCell id="UhS12bV-5eenLFscR9gc-52" value="&lt;font style=&quot;font-size: 24px;&quot;&gt;24.&lt;/font&gt;" style="ellipse;whiteSpace=wrap;html=1;aspect=fixed;" vertex="1" parent="1">
          <mxGeometry x="948" y="708" width="80" height="80" as="geometry" />
        </mxCell>
        <mxCell id="UhS12bV-5eenLFscR9gc-76" style="edgeStyle=orthogonalEdgeStyle;rounded=0;orthogonalLoop=1;jettySize=auto;html=1;" edge="1" parent="1" source="UhS12bV-5eenLFscR9gc-54" target="UhS12bV-5eenLFscR9gc-68">
          <mxGeometry relative="1" as="geometry">
            <Array as="points">
              <mxPoint x="1008" y="1344" />
              <mxPoint x="1044" y="1344" />
              <mxPoint x="1044" y="1428" />
            </Array>
          </mxGeometry>
        </mxCell>
        <mxCell id="UhS12bV-5eenLFscR9gc-54" value="&lt;font style=&quot;font-size: 24px;&quot;&gt;21&lt;/font&gt;" style="ellipse;whiteSpace=wrap;html=1;aspect=fixed;" vertex="1" parent="1">
          <mxGeometry x="948" y="1032" width="80" height="80" as="geometry" />
        </mxCell>
        <mxCell id="UhS12bV-5eenLFscR9gc-64" style="edgeStyle=orthogonalEdgeStyle;rounded=0;orthogonalLoop=1;jettySize=auto;html=1;" edge="1" parent="1" source="UhS12bV-5eenLFscR9gc-56" target="UhS12bV-5eenLFscR9gc-48">
          <mxGeometry relative="1" as="geometry">
            <mxPoint x="600" y="828" as="targetPoint" />
            <Array as="points">
              <mxPoint x="456" y="1204" />
              <mxPoint x="456" y="804" />
              <mxPoint x="756" y="804" />
            </Array>
          </mxGeometry>
        </mxCell>
        <mxCell id="UhS12bV-5eenLFscR9gc-56" value="&lt;font style=&quot;font-size: 24px;&quot;&gt;18.3&lt;/font&gt;" style="ellipse;whiteSpace=wrap;html=1;aspect=fixed;" vertex="1" parent="1">
          <mxGeometry x="744" y="1164" width="80" height="80" as="geometry" />
        </mxCell>
        <mxCell id="UhS12bV-5eenLFscR9gc-62" style="edgeStyle=orthogonalEdgeStyle;rounded=0;orthogonalLoop=1;jettySize=auto;html=1;" edge="1" parent="1" source="UhS12bV-5eenLFscR9gc-60" target="UhS12bV-5eenLFscR9gc-56">
          <mxGeometry relative="1" as="geometry" />
        </mxCell>
        <mxCell id="UhS12bV-5eenLFscR9gc-60" value="&lt;font style=&quot;font-size: 24px;&quot;&gt;20&lt;/font&gt;" style="ellipse;whiteSpace=wrap;html=1;aspect=fixed;" vertex="1" parent="1">
          <mxGeometry x="744" y="1032" width="80" height="80" as="geometry" />
        </mxCell>
        <mxCell id="UhS12bV-5eenLFscR9gc-73" style="edgeStyle=orthogonalEdgeStyle;rounded=0;orthogonalLoop=1;jettySize=auto;html=1;entryX=1;entryY=0;entryDx=0;entryDy=0;" edge="1" parent="1" source="UhS12bV-5eenLFscR9gc-65" target="UhS12bV-5eenLFscR9gc-68">
          <mxGeometry relative="1" as="geometry" />
        </mxCell>
        <mxCell id="UhS12bV-5eenLFscR9gc-65" value="&lt;font style=&quot;font-size: 24px;&quot;&gt;23.&lt;/font&gt;" style="ellipse;whiteSpace=wrap;html=1;aspect=fixed;" vertex="1" parent="1">
          <mxGeometry x="984" y="350" width="84" height="84" as="geometry" />
        </mxCell>
        <mxCell id="UhS12bV-5eenLFscR9gc-68" value="&lt;font style=&quot;font-size: 24px;&quot;&gt;25&lt;/font&gt;" style="ellipse;whiteSpace=wrap;html=1;aspect=fixed;" vertex="1" parent="1">
          <mxGeometry x="1116" y="1416" width="80" height="80" as="geometry" />
        </mxCell>
      </root>
    </mxGraphModel>
  </diagram>
</mxfile>
